<svg aria-hidden="true" style="position: absolute; width: 0; height: 0; overflow: hidden;" version="1.1" xmlns="http://www.w3.org/2000/svg" xmlns:xlink="http://www.w3.org/1999/xlink">
<defs>
<symbol id="icon-linkedin" viewBox="0 0 24 28">
<path d="M5.453 9.766v15.484h-5.156v-15.484h5.156zM5.781 4.984c0.016 1.484-1.109 2.672-2.906 2.672v0h-0.031c-1.734 0-2.844-1.188-2.844-2.672 0-1.516 1.156-2.672 2.906-2.672 1.766 0 2.859 1.156 2.875 2.672zM24 16.375v8.875h-5.141v-8.281c0-2.078-0.75-3.5-2.609-3.5-1.422 0-2.266 0.953-2.641 1.875-0.125 0.344-0.172 0.797-0.172 1.266v8.641h-5.141c0.063-14.031 0-15.484 0-15.484h5.141v2.25h-0.031c0.672-1.062 1.891-2.609 4.672-2.609 3.391 0 5.922 2.219 5.922 6.969z"></path>
</symbol>
<symbol id="icon-twitter" viewBox="0 0 26 28">
<path d="M25.312 6.375c-0.688 1-1.547 1.891-2.531 2.609 0.016 0.219 0.016 0.438 0.016 0.656 0 6.672-5.078 14.359-14.359 14.359-2.859 0-5.516-0.828-7.75-2.266 0.406 0.047 0.797 0.063 1.219 0.063 2.359 0 4.531-0.797 6.266-2.156-2.219-0.047-4.078-1.5-4.719-3.5 0.313 0.047 0.625 0.078 0.953 0.078 0.453 0 0.906-0.063 1.328-0.172-2.312-0.469-4.047-2.5-4.047-4.953v-0.063c0.672 0.375 1.453 0.609 2.281 0.641-1.359-0.906-2.25-2.453-2.25-4.203 0-0.938 0.25-1.797 0.688-2.547 2.484 3.062 6.219 5.063 10.406 5.281-0.078-0.375-0.125-0.766-0.125-1.156 0-2.781 2.25-5.047 5.047-5.047 1.453 0 2.766 0.609 3.687 1.594 1.141-0.219 2.234-0.641 3.203-1.219-0.375 1.172-1.172 2.156-2.219 2.781 1.016-0.109 2-0.391 2.906-0.781z"></path>
</symbol>
<symbol id="icon-pinterest-p" viewBox="0 0 20 28">
<path d="M0 9.328c0-5.766 5.281-9.328 10.625-9.328 4.906 0 9.375 3.375 9.375 8.547 0 4.859-2.484 10.25-8.016 10.25-1.313 0-2.969-0.656-3.609-1.875-1.188 4.703-1.094 5.406-3.719 9l-0.219 0.078-0.141-0.156c-0.094-0.984-0.234-1.953-0.234-2.938 0-3.187 1.469-7.797 2.188-10.891-0.391-0.797-0.5-1.766-0.5-2.641 0-1.578 1.094-3.578 2.875-3.578 1.313 0 2.016 1 2.016 2.234 0 2.031-1.375 3.938-1.375 5.906 0 1.344 1.109 2.281 2.406 2.281 3.594 0 4.703-5.187 4.703-7.953 0-3.703-2.625-5.719-6.172-5.719-4.125 0-7.313 2.969-7.313 7.156 0 2.016 1.234 3.047 1.234 3.531 0 0.406-0.297 1.844-0.812 1.844-0.078 0-0.187-0.031-0.266-0.047-2.234-0.672-3.047-3.656-3.047-5.703z"></path>
</symbol>
<symbol id="icon-facebook" viewBox="0 0 16 28">
<path d="M14.984 0.187v4.125h-2.453c-1.922 0-2.281 0.922-2.281 2.25v2.953h4.578l-0.609 4.625h-3.969v11.859h-4.781v-11.859h-3.984v-4.625h3.984v-3.406c0-3.953 2.422-6.109 5.953-6.109 1.687 0 3.141 0.125 3.563 0.187z"></path>
</symbol>
<symbol id="icon-heart" viewBox="0 0 28 28">
<path d="M14 26c-0.25 0-0.5-0.094-0.688-0.281l-9.75-9.406c-0.125-0.109-3.563-3.25-3.563-7 0-4.578 2.797-7.313 7.469-7.313 2.734 0 5.297 2.156 6.531 3.375 1.234-1.219 3.797-3.375 6.531-3.375 4.672 0 7.469 2.734 7.469 7.313 0 3.75-3.437 6.891-3.578 7.031l-9.734 9.375c-0.187 0.187-0.438 0.281-0.688 0.281z"></path>
</symbol>
<symbol id="icon-arrow-right" viewBox="0 0 20 20">
<path d="M11 16.5v-3.5h-8v-6h8v-3.5l6.5 6.5-6.5 6.5z"></path>
</symbol>
<symbol id="icon-shopping-basket" viewBox="0 0 20 20">
<path d="M18.399 7h-5.007l-1.812 1.812c-0.453 0.453-1.056 0.702-1.696 0.702-0.642 0-1.244-0.25-1.698-0.703-0.452-0.452-0.702-1.054-0.703-1.695 0-0.039 0.010-0.077 0.011-0.116h-5.894c-0.332 0-0.6 0.268-0.6 0.6v2.4h18v-2.4c0-0.332-0.27-0.6-0.601-0.6zM10.768 7.999l5.055-5.055c0.235-0.234 0.237-0.613 0.002-0.849l-0.92-0.92c-0.234-0.234-0.614-0.233-0.85 0l-5.055 5.056c-0.488 0.488-0.488 1.28 0 1.768 0.488 0.487 1.279 0.488 1.768 0zM3.823 17.271c0.097 0.401 0.515 0.729 0.927 0.729h10.5c0.412 0 0.83-0.328 0.927-0.729l1.523-6.271h-15.4l1.523 6.271z"></path>
</symbol>
<symbol id="icon-coffeescript" viewBox="0 0 32 32">
<path d="M6.187 9.96c2.8 0.707 6.373 1.067 10.68 1.067 4.4 0 7.893-0.36 10.68-1.067 2.973-0.693 4.4-1.627 4.4-2.507 0-0.627-0.64-1.24-1.8-1.707 0.267 0.173 0.467 0.467 0.467 0.787 0 0.893-1.347 1.627-4.053 2.24-2.507 0.547-5.707 0.933-9.6 0.933-3.76 0-7.107-0.387-9.52-0.907-2.6-0.64-3.96-1.333-3.96-2.24 0-0.373 0.173-0.693 0.693-1.067-1.627 0.627-2.507 1.16-2.507 1.96 0.093 0.907 1.547 1.813 4.52 2.507zM12.44 7.080c3.027-0.267 3.907-2.213 7.453-2.533 1.747-0.133 2.853 0.213 2.973 0.827 0.107 0.573-0.76 0.96-1.813 1.040-1.453 0.147-2.053-0.373-2.173-0.867-1.080 0.12-1.253 0.573-1.2 0.893 0.12 0.613 1.427 1.227 3.667 1.013 2.533-0.2 3.387-1.2 3.173-2.2-0.267-1.307-2.213-2.4-5.707-2.067-4.48 0.4-4.453 2.48-7.507 2.733-1.253 0.12-1.947-0.173-2.067-0.667-0.080-0.493 0.533-0.733 1.253-0.787 0.667-0.067 1.48 0.053 1.867 0.267 0.28-0.147 0.373-0.293 0.347-0.467-0.133-0.467-1.053-0.667-2.213-0.587-2.267 0.2-2.267 1.213-2.187 1.667 0.227 1.16 1.973 1.933 4.133 1.733zM27.667 12.2c-2.8 0.653-6.373 1.080-10.68 1.080-4.4 0-7.987-0.453-10.773-1.067-2.507-0.64-3.84-1.347-4.307-2.080 0.24 1.64 0.653 3.227 1.187 4.733-0.64 0.4-1.213 0.893-1.733 1.56-0.852 1.032-1.368 2.367-1.368 3.823 0 0.109 0.003 0.217 0.009 0.325l-0.001-0.015c0.103 1.43 0.818 2.674 1.882 3.485l0.012 0.009c1.16 0.907 2.413 1.173 3.84 0.907 0.547-0.093 1.16-0.373 1.72-0.56-1.173 0-2.16-0.373-3.147-1.16-1.058-0.742-1.792-1.884-1.984-3.201l-0.003-0.026c-0.267-1.253 0-2.413 0.707-3.44 0.16-0.2 0.333-0.373 0.52-0.533 0.4 0.973 0.827 1.933 1.307 2.827 1.080 1.64 2.16 3.067 3.24 4.613 0.467 0.907 0.773 1.8 0.987 2.693 0.715 0.979 1.744 1.692 2.937 1.992l0.036 0.008c1.533 0.533 3.133 0.773 4.773 0.68h0.173c0.177 0.008 0.385 0.013 0.594 0.013 1.548 0 3.035-0.259 4.421-0.735l-0.096 0.029c1.179-0.352 2.166-1.049 2.87-1.973l0.010-0.014h0.093c0.173-0.893 0.467-1.787 0.893-2.693 1.067-1.56 2.16-2.973 3.227-4.613 1.39-2.52 2.432-5.45 2.963-8.554l0.023-0.166c-0.573 0.8-1.92 1.507-4.333 2.053z"></path>
</symbol>
</defs>
</svg>
